# xmcd
#
# Track frame offsets:
#  150
#  13599
#  28015
#  42652
#  55028
#  66720
#  79246
#  92356
#  107298
#  120130
#  130038
#  143551
#  158730
#  171242
#  184071
#  196721
#  209927
#
# Disc length: 2995 seconds
#
# Revision: 1
# Processed by: cddbd v1.5.1PL2 Copyright (c) Steve Scherf et al.
# Submitted via: Collectorz.com_Music_Collector 6.9
#
DISCID=e10bb111
DTITLE=Billie Holiday - Tell Me More
DYEAR=1955
DGENRE=Popular music
TTITLE0=God bless the child
TTITLE1=Tell me more
TTITLE2=Gloomy Sunday
TTITLE3=Back in your own backyard
TTITLE4=Why did I always depend on you
TTITLE5=How am I to know
TTITLE6=Forget if you can
TTITLE7=I'm yours
TTITLE8=I gotta right to sing the blues
TTITLE9=I'm gonna lock my heart and throw away the key
TTITLE10=Swing, brother, swing
TTITLE11=Lover come back to me
TTITLE12=I've got a date with a dream
TTITLE13=No more
TTITLE14=You're a lucky guy
TTITLE15=You're to lovely to last
TTITLE16=I'm pulling through
EXTD=
EXTT0=
EXTT1=
EXTT2=
EXTT3=
EXTT4=
EXTT5=
EXTT6=
EXTT7=
EXTT8=
EXTT9=
EXTT10=
EXTT11=
EXTT12=
EXTT13=
EXTT14=
EXTT15=
EXTT16=
PLAYORDER=
